<svg xmlns="http://www.w3.org/2000/svg" xmlns:xlink="http://www.w3.org/1999/xlink" width="1080" zoomAndPan="magnify" viewBox="0 0 810 809.999993" height="1080" preserveAspectRatio="xMidYMid meet" version="1.0"><defs><clipPath id="f3c16ced0d"><path d="M 239 720 L 291 720 L 291 800.203125 L 239 800.203125 Z M 239 720 " clip-rule="nonzero"/></clipPath><clipPath id="848ec3b379"><path d="M 659.550781 244.113281 L 664.050781 244.113281 L 664.050781 248.613281 L 659.550781 248.613281 Z M 659.550781 244.113281 " clip-rule="nonzero"/></clipPath></defs><path fill="#dcb65f" d="M 630.921875 102.355469 C 629.691406 103.054688 628.328125 103.59375 627.246094 104.480469 C 614.828125 114.644531 598.542969 110.691406 588.441406 102.71875 C 587.214844 101.75 585.960938 100.824219 584.695312 99.859375 C 584.359375 100.382812 584.023438 100.78125 584.078125 100.851562 C 587.9375 105.382812 585.789062 109.351562 583.644531 113.964844 C 576.742188 128.832031 581.058594 147.933594 594.632812 158.359375 C 602.707031 164.566406 612.027344 169.488281 621.398438 173.601562 C 637.710938 180.769531 654.324219 187.195312 669.292969 197.097656 C 694.839844 214.003906 713.671875 236.929688 728.671875 263.246094 C 741.421875 285.617188 751.644531 309.019531 756.113281 334.585938 C 764.699219 383.734375 749.296875 424.542969 711.871094 456.714844 C 696.175781 470.203125 680.371094 483.375 666.628906 498.945312 C 661.210938 505.085938 654.378906 509.96875 648.1875 515.421875 C 647.878906 515.105469 647.570312 514.789062 647.257812 514.472656 C 655.980469 505.582031 664.699219 496.691406 673.417969 487.796875 C 649.109375 496.609375 634.523438 517.621094 614.941406 532.417969 C 624.476562 519.882812 634.015625 507.347656 643.554688 494.816406 C 643.25 494.425781 642.945312 494.035156 642.640625 493.640625 C 641.285156 494.304688 639.667969 494.699219 638.613281 495.683594 C 634.660156 499.367188 630.875 503.226562 627.058594 507.050781 C 616.726562 517.398438 606.925781 528.335938 595.980469 537.988281 C 575.5625 556.003906 561.269531 577.539062 554.683594 604.050781 C 554.5 604.785156 554.269531 605.507812 553.847656 606.175781 C 553.332031 594.679688 556.566406 584.019531 562.269531 574.34375 C 567.890625 564.808594 574.570312 555.894531 581.035156 546.332031 C 576.707031 548.949219 572.863281 551.980469 568.515625 553.765625 C 556.914062 558.53125 545.195312 563.070312 533.328125 567.121094 C 518.742188 572.105469 504.679688 578.105469 493.265625 588.632812 C 486.59375 594.792969 481.019531 602.148438 475.625 608.207031 C 475.210938 605.101562 477.964844 597.132812 482.25 591.234375 C 489.488281 581.265625 499.332031 574.515625 510.460938 569.902344 C 523.078125 564.667969 536.128906 560.484375 548.867188 555.53125 C 580.222656 543.351562 604.203125 521.648438 625.050781 495.988281 C 625.984375 494.835938 626.609375 493.425781 627.375 492.136719 C 627.019531 491.722656 626.660156 491.316406 626.304688 490.902344 C 624.503906 492.089844 622.574219 493.117188 620.929688 494.488281 C 606.875 506.199219 592.96875 518.078125 578.820312 529.667969 C 573.695312 533.871094 568.035156 537.417969 562.292969 540.921875 C 574.535156 525.375 590.601562 513.171875 600.980469 496.066406 C 580.96875 512.929688 560.957031 529.789062 540.949219 546.652344 C 540.371094 546.078125 539.792969 545.507812 539.21875 544.9375 C 543.359375 539.964844 547.296875 534.804688 551.699219 530.074219 C 556.246094 525.191406 561.203125 520.691406 566.050781 516.09375 C 570.851562 511.535156 575.738281 507.0625 580.585938 502.550781 C 580.28125 502.101562 579.976562 501.65625 579.675781 501.207031 C 578.148438 501.972656 576.417969 502.492188 575.121094 503.539062 C 563.875 512.636719 552.875 522.054688 541.464844 530.9375 C 526.035156 542.941406 510.304688 554.566406 494.691406 566.339844 C 494.257812 566.667969 493.671875 566.808594 492.941406 566.738281 C 515.570312 543.960938 541.597656 524.761719 562.671875 500.457031 C 562.359375 499.847656 562.050781 499.238281 561.742188 498.628906 C 559.53125 499.289062 557.1875 499.671875 555.128906 500.652344 C 541.09375 507.34375 529.929688 517.699219 519.289062 528.769531 C 506.394531 542.1875 493.34375 555.457031 480.339844 568.769531 C 479.277344 569.863281 478.070312 570.816406 476.640625 571.554688 C 484.535156 556.71875 498.359375 546.636719 507.871094 532.710938 C 498.605469 534.589844 471.855469 558.335938 456.730469 578.003906 C 463.605469 584.480469 466.480469 593.074219 468.113281 602.285156 C 473.660156 633.574219 460.386719 661.746094 434.007812 674.335938 C 425.835938 678.238281 417.277344 679.492188 408.472656 677.003906 C 394.351562 673.011719 386.28125 661.453125 385.578125 644.339844 C 384.8125 625.628906 392.601562 610 405.136719 597.171875 C 413.011719 589.109375 422.804688 582.738281 432.371094 576.585938 C 436.367188 574.015625 442.003906 574.003906 446.886719 572.777344 C 448.648438 572.332031 450.816406 572.234375 452.046875 571.136719 C 463.652344 560.761719 475.097656 550.203125 486.578125 539.691406 C 486.800781 539.488281 486.90625 539.164062 487.480469 538.214844 C 486.113281 538.910156 485.238281 539.164062 484.609375 539.703125 C 466.542969 555.132812 446.253906 566.914062 424.550781 576.375 C 400.984375 586.648438 385.34375 605.136719 372.574219 626.554688 C 369.570312 631.601562 366.859375 636.847656 364.398438 642.179688 C 363.851562 643.371094 364.523438 645.621094 365.375 646.871094 C 368.84375 651.949219 372.59375 656.828125 376.242188 661.78125 C 375.941406 662.101562 375.644531 662.429688 375.347656 662.75 C 371.925781 660.921875 368.503906 659.101562 365.082031 657.273438 C 364.851562 657.554688 364.621094 657.839844 364.390625 658.121094 C 367.332031 663.265625 370.542969 668.277344 373.136719 673.589844 C 375.777344 678.996094 376.824219 684.832031 375.5625 690.980469 C 372.773438 682.558594 369.148438 674.800781 361.128906 669.792969 C 367.8125 682.011719 371.15625 694.648438 367.476562 708.472656 C 363.714844 722.613281 354.375 731.359375 340.289062 736.363281 C 345.375 736.96875 345.816406 736.769531 357.257812 729.25 C 352.003906 738.566406 338.800781 743.363281 328.371094 739.746094 C 316.332031 735.574219 309.144531 721.945312 311.257812 708.75 C 312.53125 713.746094 314.058594 719.75 315.585938 725.757812 C 316.078125 725.714844 316.566406 725.675781 317.054688 725.636719 C 312.984375 704.964844 317.589844 687.351562 335.195312 674.332031 C 334.828125 673.96875 334.464844 673.605469 334.097656 673.242188 C 329.753906 676.214844 325.414062 679.183594 321.070312 682.15625 C 320.871094 681.988281 320.671875 681.828125 320.472656 681.660156 C 324.046875 678.164062 327.242188 674.101562 331.3125 671.316406 C 335.488281 668.464844 340.519531 666.855469 345.019531 664.210938 C 337.53125 663.921875 330.675781 665.832031 324.589844 670.515625 C 324.257812 670.140625 323.929688 669.765625 323.605469 669.390625 C 326.828125 666.203125 329.707031 662.519531 333.367188 659.960938 C 337.191406 657.292969 341.769531 655.710938 345.878906 652.550781 C 343.003906 652.867188 340.128906 653.183594 336.363281 653.605469 C 342.101562 648.527344 346.101562 642.40625 354.199219 642.472656 C 355.128906 642.480469 356.410156 641.332031 356.953125 640.390625 C 363.761719 628.539062 370.472656 616.625 377.179688 604.71875 C 377.449219 604.242188 377.511719 603.644531 377.296875 602.859375 C 365.636719 612.519531 356.242188 624.15625 347.066406 636.617188 C 348.136719 630.359375 354.140625 620.125 360.527344 612.726562 C 376.40625 594.335938 395.90625 581.34375 418.875 573.601562 C 438.828125 566.875 456.710938 556.636719 473.601562 544.058594 C 490.675781 531.347656 508.695312 519.914062 526.289062 507.898438 C 529.703125 505.570312 533.128906 503.238281 536.390625 500.703125 C 537.90625 499.523438 539.042969 497.859375 540.351562 496.414062 C 540.101562 495.960938 539.851562 495.507812 539.605469 495.058594 C 537.320312 495.730469 534.949219 496.195312 532.757812 497.101562 C 513.3125 505.105469 496.292969 517.128906 479.285156 529.210938 C 468.003906 537.226562 456.464844 544.871094 445.007812 552.632812 C 443.183594 553.867188 441.191406 554.851562 439.125 555.707031 C 473.671875 516.996094 520.109375 494.277344 561.851562 465.261719 C 561.648438 464.675781 561.449219 464.089844 561.25 463.503906 C 559.257812 463.746094 557.125 463.597656 555.308594 464.292969 C 545.222656 468.164062 534.71875 471.316406 525.28125 476.421875 C 501.035156 489.539062 477.816406 504.394531 457.953125 523.757812 C 450.699219 530.828125 444.128906 538.710938 437.976562 546.773438 C 428.390625 559.324219 418.5625 567.953125 405.839844 573.007812 C 410.765625 568.597656 415.042969 565.023438 419.019531 561.140625 C 422.957031 557.304688 426.589844 553.167969 430.355469 549.160156 C 430.066406 548.84375 429.773438 548.519531 429.484375 548.203125 C 427.558594 549.90625 425.738281 551.75 423.6875 553.285156 C 415.671875 559.292969 407.863281 565.625 399.472656 571.0625 C 378.453125 584.6875 359.074219 599.910156 345.457031 621.625 C 347.589844 617.421875 349.726562 613.21875 351.859375 609.019531 C 351.519531 608.828125 351.1875 608.640625 350.847656 608.449219 C 349.378906 610.59375 347.664062 612.613281 346.472656 614.90625 C 338.480469 630.289062 330.507812 645.675781 322.710938 661.15625 C 315.441406 675.59375 306.859375 689.035156 294.851562 700.152344 C 294.558594 699.707031 294.269531 699.375 294.316406 699.316406 C 304.785156 685.945312 310.730469 670.316406 316.476562 654.621094 C 323.28125 636.027344 332.121094 618.761719 347.082031 605.246094 C 347.363281 604.988281 347.4375 604.503906 347.027344 603.515625 C 344.167969 606.113281 341.160156 608.570312 338.46875 611.328125 C 328.722656 621.34375 321.058594 632.746094 315.480469 645.613281 C 305.746094 668.074219 293.925781 689.261719 276.675781 706.992188 C 258.367188 725.808594 236.539062 735.339844 210.039062 731.484375 C 204.507812 730.679688 199.179688 728.089844 193.917969 725.933594 C 190.707031 724.617188 187.792969 722.570312 184.75 720.832031 C 178.226562 717.105469 171.675781 715.769531 164.914062 720.972656 C 166.957031 714.839844 173.730469 711.171875 180.566406 712.800781 C 185.011719 713.859375 189.332031 715.640625 193.558594 717.449219 C 223.6875 730.363281 252.183594 724.683594 273.21875 699.453125 C 284.660156 685.730469 293.726562 670.023438 303.710938 655.109375 C 306.449219 651.023438 308.917969 646.703125 311.042969 642.269531 C 324.457031 614.285156 346.25 595.0625 373.171875 580.402344 C 390.019531 571.226562 406.0625 560.484375 421.996094 549.738281 C 429.050781 544.984375 434.832031 538.363281 441.371094 532.800781 C 452.628906 523.226562 464.011719 513.789062 475.386719 504.347656 C 478.140625 502.0625 481.0625 499.992188 483.90625 497.820312 C 483.675781 497.410156 483.441406 496.996094 483.210938 496.585938 C 481.410156 497.335938 479.636719 498.160156 477.800781 498.8125 C 464.929688 503.367188 452.039062 507.859375 439.1875 512.453125 C 438.015625 512.871094 436.132812 513.863281 436.128906 514.589844 C 436.109375 524.160156 429.289062 529.199219 423.105469 534.679688 C 422.050781 535.617188 420.890625 536.429688 419.523438 537.503906 C 420.578125 533.320312 421.546875 529.488281 422.511719 525.65625 C 422.058594 525.472656 421.601562 525.285156 421.148438 525.101562 C 420.582031 525.519531 419.800781 525.808594 419.472656 526.371094 C 412.894531 537.675781 402.726562 544.933594 391.542969 550.949219 C 380.757812 556.75 369.902344 562.417969 358.917969 567.820312 C 356.179688 569.167969 352.714844 570.160156 349.800781 569.753906 C 344.742188 569.050781 340.753906 570.738281 336.84375 573.296875 C 332.242188 576.304688 327.726562 579.441406 322.828125 582.15625 C 328.90625 574.109375 337.449219 568.089844 341.414062 558.222656 C 333.039062 559.324219 327.824219 566.089844 320.210938 569.070312 C 321.238281 567.824219 322.269531 566.582031 323.289062 565.332031 C 326.210938 561.765625 329.199219 558.253906 332.023438 554.617188 C 334.59375 551.316406 335.847656 547.980469 335.402344 543.300781 C 334.105469 529.648438 346.453125 510.46875 359.085938 505.097656 C 372.351562 499.457031 382.6875 505.351562 386.960938 521.648438 C 392.679688 519.433594 398.390625 517.328125 403.972656 514.929688 C 404.644531 514.640625 405.035156 512.730469 404.890625 511.667969 C 404.242188 507.105469 403.429688 502.558594 402.515625 498.039062 C 401.460938 492.816406 398.222656 489.8125 392.988281 488.609375 C 383.847656 486.511719 375.328125 488.585938 366.960938 492.03125 C 365.09375 492.796875 363.285156 493.703125 361.261719 494.121094 C 368.542969 488.148438 377.089844 485.019531 386.238281 483.394531 C 389.03125 482.898438 391.945312 482.949219 394.804688 482.964844 C 402.886719 483.003906 408.867188 486.378906 412.09375 494.0625 C 413.675781 497.839844 415.359375 501.570312 417.808594 505.226562 C 417.808594 500.261719 417.808594 495.289062 417.808594 489.445312 C 419.382812 492.09375 420.3125 493.929688 421.488281 495.589844 C 426.753906 503.019531 432.960938 505.695312 442.671875 503.332031 C 466.390625 497.566406 488.265625 487.464844 510.148438 477.195312 C 510.925781 476.832031 511.597656 476.238281 512.15625 475.394531 C 490.371094 481.683594 469.59375 491.191406 446.613281 493.789062 C 448.417969 492.898438 450.160156 491.84375 452.039062 491.148438 C 477.976562 481.523438 503.839844 471.671875 529.945312 462.515625 C 538.4375 459.535156 547.792969 459.066406 556.355469 456.25 C 567.164062 452.691406 577.675781 448.140625 588.054688 443.453125 C 590.433594 442.375 591.765625 438.976562 593.578125 436.648438 C 590.894531 436.753906 588.011719 436.246094 585.5625 437.058594 C 569.113281 442.53125 552.902344 448.757812 536.339844 453.847656 C 502.90625 464.121094 469.300781 473.84375 435.757812 483.746094 C 433.703125 484.355469 431.527344 484.546875 429.410156 484.929688 C 429.230469 484.382812 429.046875 483.839844 428.867188 483.292969 C 441.84375 478.1875 454.816406 473.085938 467.796875 467.980469 C 447.535156 467.734375 428.371094 474.3125 408.597656 476.628906 C 408.441406 476.070312 408.28125 475.503906 408.125 474.945312 C 414.503906 472.875 420.738281 470.085938 427.273438 468.878906 C 446.339844 465.355469 465.492188 462.28125 484.664062 459.382812 C 501.742188 456.800781 518.457031 453.1875 533.882812 445.050781 C 535.429688 444.238281 536.921875 443.320312 538.40625 442.402344 C 538.769531 442.179688 539.019531 441.769531 539.089844 440.460938 C 499.628906 447.332031 460.304688 455.171875 420.667969 460.796875 C 380.996094 466.429688 342 475.054688 302.902344 483.492188 C 335.960938 470.921875 370.132812 462.675781 405.011719 457.148438 C 404.957031 456.757812 404.90625 456.359375 404.851562 455.960938 C 396.472656 456.753906 388.050781 457.230469 379.726562 458.386719 C 349.292969 462.632812 318.832031 467.191406 290.160156 478.777344 C 273.539062 485.496094 257.242188 493.265625 241.488281 501.824219 C 215.574219 515.910156 188.667969 525.449219 158.765625 524.378906 C 139.308594 523.6875 121.402344 518.371094 106.378906 505.496094 C 98.089844 498.394531 92.601562 489.566406 93.015625 478.183594 C 93.125 475.164062 94.507812 472.195312 95.898438 469.398438 C 94.644531 482.425781 100.660156 492.035156 109.539062 500.15625 C 120.125 509.839844 133.238281 514.089844 147.082031 516.503906 C 161.527344 519.023438 175.90625 518.808594 190.203125 515.503906 C 192.28125 515.023438 194.304688 514.273438 196.148438 512.535156 C 192.628906 512.777344 189.105469 512.996094 185.589844 513.261719 C 173.371094 514.1875 161.402344 513.019531 149.964844 508.457031 C 141.519531 505.082031 134.613281 499.683594 130.40625 491.117188 C 132.820312 492.945312 135.128906 494.945312 137.664062 496.582031 C 154.386719 507.394531 172.945312 510.460938 192.140625 507.289062 C 204.574219 505.234375 216.804688 501.3125 228.757812 497.167969 C 239.09375 493.585938 248.914062 488.523438 258.949219 484.09375 C 259.761719 483.734375 260.503906 483.21875 262.488281 482.085938 C 226.257812 488.964844 192.148438 502.871094 155.765625 494.097656 C 155.71875 493.644531 155.671875 493.191406 155.625 492.742188 C 156.480469 492.644531 157.339844 492.542969 158.195312 492.453125 C 168.464844 491.445312 178.960938 491.472656 188.953125 489.230469 C 211.878906 484.082031 235.035156 481.722656 258.425781 480.363281 C 266.699219 479.882812 275.042969 477.890625 283.027344 475.488281 C 321.863281 463.820312 361.515625 456.621094 401.8125 452.5 C 432.183594 449.394531 462.59375 446.484375 492.820312 442.304688 C 517.21875 438.929688 541.371094 433.800781 565.632812 429.410156 C 567.289062 429.105469 568.878906 428.445312 570.5 427.949219 C 570.570312 427.433594 570.644531 426.921875 570.710938 426.410156 C 568.199219 425.625 565.691406 424.1875 563.1875 424.191406 C 558.132812 424.203125 553.039062 424.726562 548.039062 425.53125 C 536.460938 427.378906 524.929688 429.519531 513.25 431.078125 C 523.054688 425.9375 534.207031 423.710938 543.109375 416.964844 C 542.984375 416.457031 542.863281 415.949219 542.738281 415.4375 C 540.152344 415.59375 537.425781 415.269531 535.011719 415.992188 C 520.261719 420.40625 505.292969 424.300781 490.949219 429.808594 C 468.976562 438.246094 446.691406 442.640625 423.230469 439.207031 C 416.820312 438.269531 410.507812 436.691406 404.191406 434.878906 C 424.9375 437.042969 445.625 439.242188 466.6875 433.023438 C 458.070312 433.023438 450.121094 433.402344 442.214844 432.945312 C 422.210938 431.792969 402.226562 430.269531 382.234375 428.890625 C 367.8125 427.898438 353.359375 427.21875 338.980469 425.769531 C 331.621094 425.023438 324.398438 422.910156 317.195312 420.835938 C 337.246094 424.195312 357.378906 424.949219 377.621094 424.179688 C 397.882812 423.410156 417.605469 420.207031 436.269531 411.667969 C 435.257812 411.796875 434.207031 411.785156 433.246094 412.074219 C 394.019531 423.84375 354.460938 423.132812 314.765625 414.992188 C 310.574219 414.132812 308.25 414.472656 307.214844 419.101562 C 306.722656 421.296875 305.140625 423.390625 303.632812 425.167969 C 302.242188 426.804688 300.28125 427.960938 298.683594 429.238281 C 331.15625 433.644531 363.558594 438.046875 395.960938 442.449219 C 395.898438 442.960938 395.835938 443.46875 395.773438 443.980469 C 381.191406 443.261719 366.578125 442.871094 352.027344 441.75 C 322.066406 439.4375 292.085938 437.203125 262.210938 434.023438 C 243.527344 432.03125 228.152344 423.230469 217.429688 407.226562 C 203.460938 386.363281 214.082031 369.851562 231.367188 361.300781 C 250.015625 352.074219 275.363281 361.128906 286.257812 380.160156 C 289.945312 386.597656 292.957031 393.425781 296.28125 400.070312 C 296.65625 399.949219 297.035156 399.828125 297.410156 399.707031 C 295.105469 393.464844 292.800781 387.222656 290.496094 380.980469 C 290.746094 380.8125 290.996094 380.640625 291.242188 380.46875 C 296.640625 388.363281 302.339844 396.074219 307.273438 404.246094 C 308.898438 406.9375 310.246094 408.3125 313.273438 408.335938 C 324.078125 408.421875 334.886719 408.882812 345.683594 408.675781 C 370.171875 408.207031 394.695312 408.066406 419.128906 406.59375 C 445.445312 405.007812 471.679688 402.042969 497.953125 399.683594 C 497.921875 399.210938 497.890625 398.742188 497.859375 398.269531 C 494.050781 398.433594 490.234375 398.496094 486.433594 398.789062 C 458.652344 400.945312 430.859375 402.4375 403.011719 400.097656 C 375.6875 397.804688 348.398438 394.445312 322.464844 385.429688 C 297.289062 376.671875 274.929688 362.976562 260.835938 339.074219 C 242.195312 307.46875 260.136719 270.09375 297.3125 264.917969 C 295.320312 266.171875 294.203125 266.894531 293.066406 267.585938 C 273.476562 279.492188 263.203125 296.921875 262.132812 319.792969 C 261.671875 329.640625 265.339844 338.214844 270.773438 346.0625 C 278.574219 357.324219 288.875 365.742188 300.300781 371.535156 C 293.503906 365.289062 285.785156 358.90625 278.917969 351.710938 C 270.777344 343.191406 266.921875 332.796875 267.941406 320.746094 C 269.210938 305.800781 281.996094 292.65625 297.421875 291.574219 C 294.347656 293.578125 291.863281 295.175781 289.398438 296.792969 C 266.257812 311.953125 270.929688 337.820312 285.859375 351.367188 C 304.832031 368.578125 327.773438 377.304688 352.007812 383.765625 C 388.039062 393.367188 424.742188 393.160156 461.523438 391.816406 C 480.277344 391.128906 499.011719 389.894531 517.753906 388.878906 C 519.105469 388.804688 520.449219 388.480469 521.800781 387.515625 C 509.46875 384.101562 496.921875 384.746094 484.226562 385.003906 C 493.617188 383.003906 503.007812 381 512.398438 379.003906 C 512.359375 378.308594 512.320312 377.617188 512.285156 376.921875 C 510.445312 376.660156 508.574219 376.03125 506.777344 376.199219 C 492.53125 377.550781 478.308594 379.078125 464.066406 380.507812 C 447.503906 382.167969 430.988281 382.511719 414.890625 377.375 C 409.800781 375.753906 404.949219 373.390625 399.980469 371.359375 C 394.695312 382.355469 383.421875 379.578125 374.085938 381.878906 C 376.285156 379.316406 378.476562 376.757812 380.671875 374.195312 C 380.5 373.691406 380.328125 373.191406 380.164062 372.6875 C 370.449219 376.144531 360.855469 380.472656 349.105469 377.996094 C 352.128906 376.828125 354.0625 376.085938 355.996094 375.339844 C 355.984375 374.972656 355.96875 374.609375 355.957031 374.242188 C 352 374.015625 348.023438 373.941406 344.078125 373.539062 C 325.519531 371.660156 310.5 363.972656 301.847656 346.660156 C 294.5625 332.101562 298.832031 316.128906 312.296875 309.011719 C 316.710938 306.675781 322.300781 305.433594 327.3125 305.558594 C 340.890625 305.898438 353.597656 310.070312 365.214844 317.148438 C 377.308594 324.519531 384.671875 335.175781 386.71875 349.328125 C 386.808594 349.953125 386.976562 350.570312 387.183594 351.171875 C 387.269531 351.425781 387.542969 351.621094 387.96875 352.113281 C 389.117188 349.515625 390.171875 347.125 391.539062 344.042969 C 394.625 351.660156 397.195312 358.585938 400.308594 365.257812 C 401.113281 366.984375 403.4375 368.3125 405.359375 369.15625 C 414.988281 373.386719 425.257812 374.980469 435.640625 374.808594 C 448.648438 374.585938 461.644531 373.566406 474.695312 372.007812 C 457.234375 370.121094 439.609375 369.792969 423.058594 363.101562 C 434.386719 364.769531 445.71875 366.441406 457.046875 368.109375 C 457.121094 367.695312 457.191406 367.28125 457.269531 366.867188 C 444.648438 363.484375 432.035156 360.097656 419.417969 356.714844 C 419.53125 356.28125 419.644531 355.847656 419.757812 355.414062 C 426.601562 357.007812 433.421875 358.695312 440.28125 360.179688 C 459.207031 364.273438 478.410156 365.300781 497.691406 364.996094 C 501.566406 364.933594 505.421875 363.617188 509.289062 362.878906 C 509.3125 362.09375 509.335938 361.3125 509.355469 360.527344 C 507.292969 359.730469 505.292969 358.511719 503.160156 358.214844 C 490.734375 356.460938 478.246094 355.109375 465.839844 353.261719 C 449.988281 350.894531 434.097656 348.644531 418.421875 345.394531 C 411.824219 344.023438 405.730469 340.222656 399.667969 336.777344 C 414.597656 342.722656 430.175781 344.054688 446.042969 344.035156 C 437.582031 341.679688 429.070312 339.496094 420.671875 336.929688 C 398.960938 330.304688 378.839844 320.6875 362.480469 304.496094 C 352.039062 294.15625 344.289062 282.25 343.871094 266.980469 C 343.496094 253.171875 348.292969 241.4375 359.257812 232.597656 C 360.179688 231.855469 361.269531 231.320312 362.585938 230.910156 C 357.925781 238.417969 355.511719 246.507812 355 255.171875 C 354.046875 271.605469 360.15625 285.425781 371.242188 297.089844 C 389.050781 315.84375 411.179688 327.613281 435.902344 333.980469 C 454.492188 338.765625 473.558594 341.695312 492.40625 345.484375 C 497.546875 346.523438 502.632812 347.917969 507.8125 348.664062 C 509.625 348.921875 511.648438 347.707031 513.578125 347.164062 C 512.152344 345.722656 510.941406 343.414062 509.253906 342.980469 C 495.855469 339.546875 482.445312 336.117188 468.898438 333.359375 C 446.578125 328.816406 425.027344 322.390625 406.035156 309.367188 C 392.183594 299.875 381.539062 288.03125 380.035156 270.253906 C 379.257812 261.058594 381.808594 253.003906 389.757812 247.800781 C 397.597656 242.671875 405.703125 244.570312 413.238281 248.890625 C 417.160156 251.132812 420.617188 254.183594 424.28125 256.871094 C 424.085938 257.230469 423.886719 257.589844 423.695312 257.949219 C 421.207031 257.191406 418.742188 256.363281 416.234375 255.6875 C 402.769531 252.058594 394.472656 258.9375 396.039062 272.773438 C 397.535156 285.96875 404.785156 295.726562 415.492188 303.113281 C 431.609375 314.242188 449.84375 320.199219 468.679688 324.609375 C 473.734375 325.792969 478.839844 326.757812 483.921875 327.820312 C 484.066406 327.40625 484.214844 326.992188 484.363281 326.574219 C 482.59375 325.777344 480.886719 324.785156 479.050781 324.207031 C 466.472656 320.242188 453.628906 316.964844 441.339844 312.257812 C 431.78125 308.597656 422.566406 303.714844 413.859375 298.304688 C 409.804688 295.789062 406.71875 291.0625 404.347656 286.710938 C 402.742188 283.765625 403.144531 279.726562 403.394531 276.066406 C 404.640625 286.359375 411.453125 292.546875 419.078125 297.980469 C 434.683594 309.09375 452.796875 314.191406 471.015625 318.8125 C 479.789062 321.035156 488.734375 322.625 497.652344 324.203125 C 499.535156 324.539062 501.652344 323.574219 503.660156 323.207031 C 502.171875 321.632812 500.949219 319.1875 499.144531 318.632812 C 492.179688 316.503906 485.023438 314.992188 477.953125 313.222656 C 466.710938 310.40625 455.195312 308.34375 444.34375 304.433594 C 438.214844 302.21875 432.746094 297.429688 427.800781 292.90625 C 423.996094 289.433594 422.886719 284.273438 424.238281 279.234375 C 427.351562 283.609375 429.585938 288.785156 433.496094 291.765625 C 438.941406 295.914062 445.320312 299.582031 451.867188 301.378906 C 463.003906 304.445312 474.578125 305.925781 485.984375 307.988281 C 487.480469 308.257812 489.070312 308.023438 490.929688 307.046875 C 489.460938 306.53125 488.003906 305.964844 486.511719 305.507812 C 477.398438 302.710938 468.128906 300.335938 459.1875 297.058594 C 449.828125 293.628906 441.523438 288.25 435.265625 280.25 C 425.859375 268.222656 426.210938 251.738281 436.308594 240.296875 C 445.164062 230.257812 456.53125 225.902344 470.195312 227.066406 C 468.484375 227.929688 466.773438 228.792969 465.0625 229.660156 C 449.351562 237.640625 442.503906 251.648438 446.265625 268.359375 C 448.03125 276.21875 452.296875 282.441406 459.535156 286.125 C 471.195312 292.054688 483.882812 294.324219 496.742188 295.722656 C 498.148438 295.871094 499.640625 295.25 501.09375 294.984375 C 501.15625 294.527344 501.21875 294.0625 501.285156 293.601562 C 499.507812 292.980469 497.761719 292.269531 495.957031 291.75 C 486.5 289.035156 476.75 287.085938 467.648438 283.488281 C 458.03125 279.6875 451.800781 272.40625 452.003906 261.183594 C 452.015625 260.558594 452.15625 259.941406 452.632812 259.019531 C 455.832031 269.675781 462.675781 276.785156 472.90625 280.484375 C 482.472656 283.941406 492.34375 285.699219 502.464844 285.667969 C 502.613281 285.226562 502.757812 284.785156 502.902344 284.34375 C 501.449219 283.78125 500.035156 283.050781 498.535156 282.679688 C 490.828125 280.765625 483.035156 279.171875 475.398438 277.011719 C 470.09375 275.511719 465.445312 272.664062 463.058594 267.285156 C 462.386719 265.761719 462.121094 264.054688 462.011719 262.144531 C 470.714844 276.792969 485.453125 276.804688 499.3125 278.875 C 499.515625 278.433594 499.714844 277.992188 499.917969 277.546875 C 498.609375 277.054688 497.324219 276.5 495.996094 276.078125 C 491.597656 274.695312 487.039062 273.71875 482.816406 271.929688 C 470.902344 266.886719 464.089844 255.023438 466.570312 244.210938 C 466.808594 243.175781 467.316406 242.199219 468.171875 239.949219 C 469.523438 260.09375 482.628906 267.417969 498.492188 272.363281 C 506.667969 274.910156 514.523438 278.457031 522.613281 281.300781 C 526.492188 282.664062 530.527344 283.8125 534.582031 284.328125 C 536.628906 284.585938 538.878906 283.21875 541.035156 282.582031 C 540.992188 281.953125 540.949219 281.316406 540.90625 280.683594 C 539.410156 280.039062 537.96875 279.167969 536.410156 278.777344 C 527.308594 276.515625 518.175781 274.382812 509.066406 272.167969 C 501.742188 270.386719 494.613281 268.117188 489.046875 262.691406 C 485.6875 259.417969 483.046875 255.726562 483.929688 249.210938 C 486.714844 257.445312 491.324219 262.609375 498.035156 265.695312 C 504.472656 268.664062 511.097656 270.824219 518.210938 269.625 C 518.351562 269.1875 518.5 268.75 518.640625 268.3125 C 516.933594 267.308594 515.207031 266.335938 513.523438 265.292969 C 509.484375 262.785156 505.160156 260.628906 501.496094 257.65625 C 491.289062 249.371094 488.675781 236.859375 494.46875 223.898438 C 494.761719 225.269531 495.066406 226.042969 495.0625 226.816406 C 495.054688 241.136719 502.535156 250.527344 515.109375 255.941406 C 521.035156 258.496094 527.515625 259.851562 533.828125 261.417969 C 546.472656 264.546875 559.160156 267.527344 571.875 270.371094 C 575.222656 271.121094 578.746094 271.472656 582.164062 271.363281 C 583.894531 271.308594 585.582031 269.8125 587.289062 268.972656 C 587.21875 268.496094 587.148438 268.019531 587.074219 267.539062 C 585.515625 267.074219 583.980469 266.5 582.394531 266.15625 C 567.9375 263.039062 553.402344 260.265625 539.054688 256.71875 C 533.464844 255.335938 528.050781 252.6875 523.007812 249.820312 C 518.816406 247.433594 516.378906 243.203125 515.636719 238.070312 C 523.347656 252.738281 537.574219 254.722656 551.625 256.789062 C 567.820312 259.171875 584.09375 261.003906 600.257812 263.570312 C 606.304688 264.53125 612.128906 266.882812 618.539062 268.742188 C 620.027344 258.617188 618.199219 249.171875 611.484375 241.546875 C 606.507812 235.894531 600.394531 231.140625 594.378906 226.515625 C 582.304688 217.234375 568.703125 209.574219 557.953125 198.988281 C 529.414062 170.898438 525.179688 130.378906 545.910156 96.09375 C 556.714844 78.226562 570.5625 63.277344 589.703125 54.054688 C 600.789062 48.714844 612.265625 47.507812 623.863281 52.496094 C 636.519531 57.945312 643.40625 72.003906 639.945312 85.222656 C 639.480469 86.992188 638.433594 88.609375 636.945312 91.835938 C 631.484375 72.921875 621.199219 61.046875 601.449219 59.273438 C 600.816406 69.730469 601.390625 79.285156 608.472656 87.109375 C 615.894531 95.300781 625.445312 95.390625 636.707031 92.988281 C 634.234375 96.832031 632.441406 99.613281 630.65625 102.398438 C 630.628906 102.382812 630.921875 102.355469 630.921875 102.355469 Z M 436.070312 608.089844 C 437.503906 605.285156 435.660156 604.402344 433.585938 604.777344 C 429.136719 605.585938 424.527344 606.339844 420.457031 608.167969 C 416.871094 609.78125 413.933594 612.824219 410.710938 615.238281 C 414.535156 616.332031 417.929688 615.679688 420.378906 616.910156 C 426.851562 620.164062 430.773438 618.125 433.585938 612.144531 C 432.691406 614.160156 431.597656 616.121094 430.988281 618.222656 C 430.65625 619.351562 430.703125 621.460938 431.359375 621.867188 C 437.398438 625.601562 442.113281 630.421875 445.09375 637.421875 C 446.644531 631.402344 448.105469 625.554688 447.449219 619.953125 C 446.984375 615.96875 443.933594 612.121094 441.441406 608.648438 C 440.746094 607.671875 437.921875 608.230469 436.070312 608.089844 Z M 734.398438 389.398438 C 733.820312 389.03125 733.238281 388.65625 732.660156 388.289062 C 731.089844 390.484375 729.359375 392.582031 727.980469 394.894531 C 719.320312 409.414062 709.667969 423.203125 697.480469 435.003906 C 675.421875 456.367188 650.578125 473.417969 621.265625 483.421875 C 618.273438 484.441406 615.484375 486.078125 612.601562 487.429688 C 612.84375 487.929688 613.089844 488.433594 613.335938 488.933594 C 644.578125 485.125 673.085938 474.839844 696.382812 452.5625 C 714.839844 434.914062 727.105469 413.578125 734.398438 389.398438 Z M 570.261719 419.003906 C 599.757812 434.960938 629.34375 433.917969 658.972656 419.246094 C 677.914062 409.863281 689.695312 401.429688 689.308594 397.269531 C 650.929688 411.605469 612.355469 424.746094 570.261719 419.003906 Z M 519.355469 364.800781 C 530.0625 382.488281 545.238281 393.96875 565.078125 398.953125 C 587.773438 404.652344 609.828125 401.78125 631.539062 393.273438 C 591.710938 393.234375 553.550781 387.261719 519.355469 364.800781 Z M 564.910156 486.925781 C 590.46875 495.339844 657.953125 458.4375 664.382812 432.730469 C 633.6875 455.316406 602.117188 476.277344 564.910156 486.925781 Z M 342.710938 362.71875 C 349.144531 365.683594 353.945312 366.015625 358.496094 363.417969 C 367.359375 358.347656 371.121094 349.914062 373.441406 340.066406 C 374.769531 344.054688 376.101562 348.039062 377.667969 352.746094 C 381.539062 338.917969 374.375 324.144531 361.320312 318.023438 C 349.175781 312.328125 336.308594 311.03125 323.132812 312.582031 C 320.070312 312.945312 317.109375 314.164062 313.699219 315.101562 C 319.585938 315.101562 324.800781 314.8125 329.972656 315.160156 C 340.417969 315.863281 349.945312 318.738281 356.734375 327.570312 C 361.765625 334.117188 362.5625 341.960938 359.660156 348.691406 C 356.902344 355.097656 351.648438 360.875 342.710938 362.71875 Z M 546.59375 403.074219 C 546.4375 402.148438 546.28125 401.222656 546.125 400.296875 C 497.1875 408.554688 448.246094 416.816406 399.304688 425.074219 C 399.375 425.496094 399.445312 425.925781 399.515625 426.351562 C 449.699219 425.753906 498.699219 417.820312 546.59375 403.074219 Z M 511.324219 290.28125 C 506.109375 302.28125 515.960938 329.222656 530.195312 344.355469 C 541.058594 355.902344 567.167969 368.902344 575.660156 365.832031 C 543.667969 349.480469 520.800781 326.09375 511.324219 290.28125 Z M 734.09375 310.789062 C 733.550781 310.863281 733.011719 310.941406 732.472656 311.015625 C 733.375 326.78125 733.1875 342.359375 727.308594 357.273438 C 721.238281 372.675781 709.558594 383.105469 696.574219 392.960938 C 699.859375 393.410156 702.828125 393.414062 705.496094 392.515625 C 718.261719 388.21875 726.355469 378.863281 731.726562 367 C 739.230469 350.429688 739.28125 333.0625 736.359375 315.515625 C 736.089844 313.859375 734.875 312.355469 734.09375 310.789062 Z M 427.640625 672.058594 C 428.246094 671.9375 428.863281 671.851562 429.457031 671.679688 C 449.527344 665.882812 465.996094 641.449219 464.671875 619.5625 C 464.320312 613.730469 461.984375 608.8125 458.199219 604.527344 C 457.382812 603.601562 456.136719 603.054688 455.464844 602.589844 C 453.757812 615.722656 452.988281 628.621094 450.210938 641.070312 C 447.261719 654.289062 438.457031 664.078125 427.640625 672.058594 Z M 285.160156 402.363281 C 289.550781 385.671875 281.265625 371.640625 264.039062 364.648438 C 250.671875 359.21875 229.15625 362.632812 224.40625 371.320312 C 253.4375 363.632812 272.015625 376.832031 285.160156 402.363281 Z M 586.886719 344.710938 C 585.308594 341.984375 584.386719 340.390625 583.472656 338.800781 C 576.273438 326.328125 572.976562 312.976562 574.386719 298.5625 C 575.425781 287.953125 581.582031 280.964844 591.898438 278.640625 C 593.011719 278.390625 594.089844 277.964844 595.71875 277.449219 C 584.097656 273.089844 570.488281 283.800781 565.484375 300.488281 C 559.007812 322.074219 570.980469 339.023438 586.886719 344.710938 Z M 431.667969 592.265625 C 419.691406 588.574219 402.730469 599.277344 394.570312 615.347656 C 386.421875 631.394531 385.222656 656.214844 397.792969 666.972656 C 397.480469 665.878906 397.324219 665.128906 397.066406 664.414062 C 387.234375 637.304688 399.027344 616.734375 415.648438 604.085938 C 420.804688 600.167969 426.066406 596.390625 431.667969 592.265625 Z M 621.5625 438.566406 C 594.246094 455.730469 568.488281 475.480469 538.191406 487.539062 C 572.792969 482.859375 599.605469 464.839844 621.5625 438.566406 Z M 342.910156 730.015625 C 354.3125 727.78125 364.292969 715.175781 365.226562 702.589844 C 365.914062 693.335938 363.132812 685.4375 356.570312 678.757812 C 350.242188 672.316406 337.125 673.613281 333.097656 682.046875 C 336.8125 682.613281 340.386719 683.136719 343.953125 683.71875 C 345.878906 684.03125 348.027344 683.996094 349.65625 684.878906 C 356.625 688.667969 359.195312 694.902344 358.238281 702.519531 C 356.832031 713.679688 352.226562 723.167969 342.910156 730.015625 Z M 552.011719 277.25 C 544.910156 278.058594 537.9375 291.957031 537.671875 304.316406 C 537.359375 318.675781 544.789062 334.382812 552.96875 335.644531 C 546.65625 316.367188 542.128906 297.152344 552.011719 277.25 Z M 217.171875 395.28125 C 217.28125 396.039062 217.265625 396.835938 217.519531 397.539062 C 217.996094 398.875 218.515625 400.222656 219.210938 401.457031 C 226.859375 415.074219 238.246094 424.332031 252.949219 429.246094 C 262.445312 432.417969 271.789062 431.375 280.371094 425.902344 C 281.808594 424.984375 282.921875 423.566406 284.1875 422.382812 C 284.023438 421.769531 283.855469 421.15625 283.695312 420.542969 C 271.074219 424.921875 258.550781 426.441406 246.199219 420.792969 C 234.058594 415.242188 223.699219 407.757812 217.171875 395.28125 Z M 607.210938 286.632812 C 598.691406 287.320312 590.664062 299.652344 590.113281 311.753906 C 589.636719 322.160156 595.375 333.929688 600.84375 334.90625 C 600.136719 326.769531 599.007812 318.496094 598.796875 310.203125 C 598.574219 301.621094 601.625 293.804688 607.210938 286.632812 Z M 598.785156 345.53125 C 594.644531 352.34375 597.292969 362.113281 604.707031 368.601562 C 613.125 375.96875 627.746094 379.59375 632.617188 375.527344 C 602.925781 361.25 605.15625 357.945312 598.785156 345.53125 Z M 408.890625 529.78125 C 408.375 529.324219 407.855469 528.871094 407.339844 528.414062 C 392.582031 538.800781 377.824219 549.191406 363.066406 559.578125 C 363.324219 559.957031 363.582031 560.332031 363.839844 560.710938 C 370.085938 558.042969 376.597656 555.855469 382.507812 552.578125 C 389.394531 548.761719 396.050781 544.375 402.214844 539.480469 C 405.152344 537.144531 406.707031 533.066406 408.890625 529.78125 Z M 629.996094 296.289062 C 620.902344 299.84375 615.679688 306.746094 613.519531 315.871094 C 611.582031 324.058594 612.628906 331.902344 618.417969 338.828125 C 619.277344 323.753906 620.570312 309.027344 629.996094 296.289062 Z M 626.261719 334.949219 C 621.796875 341.746094 623.132812 352.460938 628.695312 360.316406 C 634.25 368.15625 646.5 373.96875 654.445312 371.84375 C 639.316406 363.796875 628.628906 352.796875 626.261719 334.949219 Z M 701.648438 365.429688 C 688.371094 355.761719 682.023438 342.957031 682.582031 326.59375 C 677.117188 331.058594 676.484375 343.859375 680.707031 352.828125 C 684.601562 361.101562 694.007812 367.105469 701.648438 365.429688 Z M 366.667969 365.933594 C 355.664062 368.246094 344.691406 369.527344 334.171875 364.5 C 323.992188 359.636719 315.886719 352.34375 310.246094 341.628906 C 308.839844 348.882812 316.019531 359.183594 325.640625 364.976562 C 338.59375 372.769531 358.070312 373.578125 366.667969 365.933594 Z M 649.699219 387.734375 C 661.183594 394.4375 691.914062 382.222656 694.246094 370.019531 C 680.382812 379.328125 665.296875 384.121094 649.699219 387.734375 Z M 276.292969 401.015625 C 273.726562 383.890625 249.734375 369.054688 237.199219 377.082031 C 243.453125 377.105469 249.546875 376.453125 254.371094 381.378906 C 242.117188 384.765625 236.917969 391.617188 239.109375 401.972656 C 239.726562 399.4375 240.113281 397.445312 240.691406 395.511719 C 242.976562 387.828125 248.878906 382.730469 255.046875 383.035156 C 261.964844 383.375 269.8125 390.101562 270.921875 397.171875 C 271.488281 400.765625 273.675781 400.734375 276.292969 401.015625 Z M 720.484375 343.167969 C 707.683594 338.269531 699.09375 329.90625 695.910156 316.328125 C 692.300781 321.546875 694.511719 331.328125 699.898438 337.21875 C 705.441406 343.28125 714.644531 346.324219 720.484375 343.167969 Z M 384.699219 537.914062 C 393.664062 533.636719 403.085938 523.710938 404.363281 516.351562 C 398.605469 518.769531 393.410156 520.890625 388.292969 523.179688 C 387.578125 523.496094 386.910156 524.558594 386.75 525.382812 C 385.992188 529.390625 385.414062 533.4375 384.699219 537.914062 Z M 663.824219 361.421875 C 655.621094 352.929688 648.207031 344.234375 646.355469 331.921875 C 643.414062 337.199219 643.496094 342.464844 645.945312 347.613281 C 649.519531 355.136719 655.4375 359.890625 663.824219 361.421875 Z M 271.628906 402.25 C 268.867188 408.144531 266.316406 413.597656 263.84375 418.875 C 272.617188 419.753906 277.21875 417.414062 278.0625 411.289062 C 278.988281 404.578125 278.144531 403.445312 271.628906 402.25 Z M 321.40625 317.902344 C 328.488281 320.304688 336.171875 322.222656 343.222656 325.5 C 350.417969 328.839844 356.441406 334.03125 359.039062 342.234375 C 359.128906 333.417969 354.441406 327.46875 347.582031 323.253906 C 339.367188 318.203125 330.542969 315.3125 321.40625 317.902344 Z M 453.441406 425.605469 C 464.796875 428.097656 497.800781 422.382812 505.933594 417.214844 C 487.910156 420.097656 470.675781 422.855469 453.441406 425.605469 Z M 673.601562 321.355469 C 669.203125 322.308594 663.902344 329.441406 663.242188 336.222656 C 662.636719 342.371094 663.5 348.121094 668.34375 353.15625 C 668.34375 346.992188 667.660156 341.554688 668.535156 336.382812 C 669.402344 331.242188 671.84375 326.363281 673.601562 321.355469 Z M 433.5 653.96875 C 443.335938 645.246094 443.042969 631.671875 433.4375 628.402344 C 436.433594 642.839844 436.433594 642.839844 433.5 653.96875 Z M 390.507812 281.425781 C 389.777344 291.476562 407.941406 311.167969 418.226562 311.714844 C 406.625 303.613281 395.964844 294.949219 390.507812 281.425781 Z M 723.039062 326.082031 C 719.015625 323.316406 715.539062 321.546875 712.90625 318.933594 C 710.308594 316.351562 708.570312 312.90625 705.757812 308.828125 C 704.714844 316.003906 707.101562 320.335938 711.558594 323.644531 C 714.667969 325.949219 717.976562 328.144531 723.039062 326.082031 Z M 405.015625 631.355469 C 407.226562 631.171875 408.871094 631.539062 409.71875 630.875 C 413.1875 628.171875 416.414062 625.148438 419.433594 622.5 C 414.34375 621.386719 409.339844 623.941406 405.015625 631.355469 Z M 263.875 410.347656 C 258.847656 411.480469 254.011719 412.574219 249.214844 413.652344 C 254.445312 417.851562 259.363281 416.710938 263.875 410.347656 Z M 534.398438 297.953125 C 530.101562 297.042969 525.808594 296.128906 521.511719 295.222656 C 524.417969 299.78125 530.707031 301.140625 534.398438 297.953125 Z M 302.820312 334.75 C 302.003906 341.496094 303.839844 347.359375 308.386719 352.320312 C 307.546875 349.347656 306.292969 346.523438 305.3125 343.605469 C 304.335938 340.703125 303.636719 337.703125 302.820312 334.75 Z M 333.660156 354.8125 C 339.835938 359.199219 344.949219 359.027344 348.269531 354.8125 C 343.640625 354.8125 338.820312 354.8125 333.660156 354.8125 Z M 328.84375 345.988281 C 328.984375 338.765625 330.753906 332.320312 338 327.746094 C 329.578125 330.847656 326.769531 336.582031 328.84375 345.988281 Z M 557.148438 281.675781 C 560.027344 286.617188 562.292969 286.808594 565.496094 282.433594 C 562.597656 282.167969 560.167969 281.949219 557.148438 281.675781 Z M 351.710938 691.550781 C 351.226562 691.71875 350.738281 691.886719 350.253906 692.054688 C 351.527344 695.757812 352.804688 699.464844 354.082031 703.167969 C 354.550781 703 355.015625 702.832031 355.484375 702.664062 C 354.222656 698.960938 352.96875 695.253906 351.710938 691.550781 Z M 351.710938 691.550781 " fill-opacity="1" fill-rule="nonzero"/><path fill="#dcb65f" d="M 248.925781 553.652344 C 223.402344 561.96875 199.203125 572.566406 179.390625 591.15625 C 170.113281 599.863281 160.964844 608.71875 151.464844 617.179688 C 137.433594 629.675781 121.183594 636.425781 102.082031 634.277344 C 91.605469 633.097656 82.96875 628.28125 76.8125 619.449219 C 79.917969 621.765625 82.820312 624.441406 86.164062 626.332031 C 95.988281 631.871094 106.519531 631.941406 117.210938 629.503906 C 131.089844 626.339844 142.765625 619.148438 153.011719 609.492188 C 160.074219 602.835938 167.023438 596.0625 173.996094 589.3125 C 191.503906 572.359375 212.382812 561.261719 235.386719 553.773438 C 254.519531 547.542969 272.140625 538.035156 289.382812 527.585938 C 287.679688 528.308594 285.96875 529.007812 284.273438 529.753906 C 260.402344 540.292969 236.621094 551.191406 210.75 555.976562 C 199.675781 558.027344 188.394531 559.0625 177.171875 560.136719 C 173.597656 560.480469 171.859375 561.25 170.574219 565.019531 C 168.542969 570.953125 165.246094 576.457031 162.03125 583.066406 C 161.324219 576.5625 160.714844 570.917969 160.097656 565.273438 C 159.601562 565.257812 159.101562 565.246094 158.605469 565.226562 C 158.492188 566.601562 158.316406 567.972656 158.277344 569.347656 C 157.757812 587.207031 150.785156 597.707031 133.863281 603.546875 C 111.167969 611.378906 88.601562 609.945312 67.113281 599.25 C 50.609375 591.039062 45.273438 570.089844 54.324219 552.441406 C 67.335938 527.066406 100.519531 519.082031 125 535.644531 C 129.839844 538.921875 134.058594 543.121094 138.558594 546.898438 C 139.964844 548.078125 141.359375 549.273438 143.007812 550.675781 C 143.878906 544.875 141.984375 542.449219 124.386719 526.210938 C 140.339844 529.484375 152.492188 536.703125 156.621094 553.894531 C 157.199219 553.46875 157.78125 553.046875 158.359375 552.621094 C 157.0625 548.269531 155.765625 543.917969 154.46875 539.5625 C 154.722656 539.316406 154.972656 539.066406 155.226562 538.820312 C 159.78125 543.03125 164.722656 546.902344 168.726562 551.582031 C 170.8125 554.019531 172.496094 554.890625 175.4375 554.417969 C 219.625 547.3125 262.636719 536.617188 302.226562 514.710938 C 319.476562 505.164062 337.03125 496.15625 354.691406 487.394531 C 366.070312 481.746094 378.195312 477.980469 391.078125 476.773438 C 388.6875 477.542969 386.316406 478.375 383.90625 479.074219 C 362.433594 485.316406 344.542969 496.609375 331.890625 515.496094 C 323.480469 528.046875 313.011719 538.238281 298.4375 543.464844 C 297.710938 543.730469 296.972656 543.96875 295.4375 544.496094 C 300.839844 540.582031 305.832031 537.492188 310.171875 533.667969 C 314.511719 529.847656 318.203125 525.289062 322.183594 521.058594 C 321.933594 520.757812 321.683594 520.457031 321.433594 520.15625 C 320.265625 520.792969 319.078125 521.398438 317.925781 522.066406 C 296.175781 534.652344 274.34375 547.089844 252.707031 559.871094 C 215.980469 581.566406 184.199219 609.355469 154.695312 639.941406 C 147.863281 647.027344 140.960938 654.164062 133.335938 660.34375 C 119.269531 671.738281 103.65625 671.992188 87.554688 664.777344 C 86.398438 664.261719 85.316406 663.578125 84.226562 662.921875 C 83.703125 662.601562 83.257812 662.15625 82.796875 662.699219 C 90.519531 663.554688 98.371094 665.652344 105.933594 664.898438 C 112.773438 664.21875 119.984375 661.507812 125.828125 657.789062 C 138.523438 649.710938 148.167969 638.128906 157.265625 625.929688 C 155.964844 626.84375 154.652344 627.742188 153.367188 628.679688 C 147.71875 632.800781 142.246094 637.199219 136.402344 641.019531 C 116.777344 653.84375 96.289062 653.742188 75.464844 644.304688 C 66.816406 640.382812 58.402344 635.96875 49.875 631.78125 C 49.933594 631.339844 49.984375 630.894531 50.039062 630.453125 C 56.265625 631.457031 62.621094 631.96875 68.6875 633.566406 C 81.027344 636.828125 93.277344 640.132812 106.242188 639.066406 C 121.628906 637.796875 135.898438 633.109375 148.5625 624.359375 C 157.960938 617.859375 167.003906 610.789062 175.808594 603.496094 C 197.785156 585.285156 220.460938 568.15625 246.128906 555.363281 C 247.113281 554.882812 248 554.226562 248.925781 553.652344 Z M 142.242188 568.386719 C 139.574219 571.691406 137.734375 574.492188 135.394531 576.773438 C 129.988281 582.050781 125.066406 588.402344 118.644531 591.953125 C 102.003906 601.144531 85.03125 599.171875 68.617188 590.316406 C 67.121094 589.511719 65.660156 588.636719 64.179688 587.796875 C 63.984375 588.132812 63.789062 588.476562 63.59375 588.8125 C 66.375 590.859375 68.992188 593.175781 71.964844 594.894531 C 86.851562 603.507812 102.988281 605.308594 119.824219 603.585938 C 137.726562 601.757812 145.324219 589.574219 142.242188 568.386719 Z M 60.542969 554.6875 C 65.128906 551.5 69.480469 547.699219 74.472656 545.148438 C 89.582031 537.4375 108.0625 541.03125 117.445312 553.023438 C 121.804688 558.59375 124.429688 559.070312 131.144531 555.496094 C 127.171875 541.671875 111.75 530.792969 96.550781 531.09375 C 80.21875 531.421875 63.640625 542.425781 60.542969 554.6875 Z M 86.15625 551.546875 C 79.296875 564.910156 80.953125 578.355469 90.621094 585.046875 C 90.050781 584.023438 89.839844 583.476562 89.484375 583.042969 C 84.113281 576.429688 83.714844 568.695312 85.078125 560.871094 C 86.101562 554.980469 89.542969 550.808594 96.007812 549.878906 C 97.4375 549.671875 98.773438 548.816406 100.148438 548.253906 C 80.449219 546.238281 71.632812 548.886719 67.304688 557.746094 C 73.300781 553.910156 79.109375 550.976562 86.15625 551.546875 Z M 122.210938 559.570312 C 123.660156 566.070312 125.003906 572.09375 126.554688 579.042969 C 131.011719 572.203125 133.023438 565.730469 131.800781 557.777344 C 128.070312 558.476562 125.046875 559.039062 122.210938 559.570312 Z M 98.042969 587.0625 C 105.035156 589.382812 111.960938 587.421875 115.253906 582.738281 C 118.121094 578.660156 118.527344 571.664062 115.523438 567.039062 C 115.402344 579.191406 108.90625 585.046875 98.042969 587.0625 Z M 98.042969 587.0625 " fill-opacity="1" fill-rule="nonzero"/><path fill="#dcb65f" d="M 401.746094 449.078125 C 390.414062 450.433594 379.039062 451.488281 367.761719 453.203125 C 340.414062 457.355469 313.128906 461.894531 285.792969 466.132812 C 260.296875 470.085938 235.050781 468.640625 210.101562 462.0625 C 208.425781 461.621094 206.730469 461.253906 204.664062 460.765625 C 202.582031 469.734375 194.9375 472.882812 187.558594 477.820312 C 189.953125 473.695312 191.871094 470.382812 193.792969 467.074219 C 193.429688 466.796875 193.074219 466.519531 192.710938 466.242188 C 192.09375 466.53125 191.339844 466.679688 190.875 467.128906 C 176.003906 481.535156 158.636719 484.1875 139.671875 477.417969 C 121.824219 471.046875 108.71875 459.460938 102.589844 441.003906 C 97.160156 424.625 108.113281 408.324219 125.304688 408.132812 C 143.867188 407.921875 159.820312 414.5 172.015625 428.984375 C 175.355469 432.953125 178.558594 437.039062 181.824219 441.074219 C 182.277344 440.84375 182.726562 440.613281 183.179688 440.382812 C 181.152344 436 179.128906 431.621094 177.101562 427.238281 C 185.609375 435.554688 196.796875 441.25 201.535156 453.101562 C 202.027344 454.332031 204.058594 455.34375 205.558594 455.71875 C 233.667969 462.75 262.195312 463.910156 290.847656 460.699219 C 306.628906 458.929688 322.269531 455.882812 337.972656 453.382812 C 339.507812 453.136719 341.015625 452.683594 342.53125 452.328125 C 342.472656 451.941406 342.414062 451.546875 342.355469 451.160156 C 329.957031 452.753906 317.550781 454.285156 305.164062 455.960938 C 281.71875 459.144531 258.226562 460.097656 234.789062 456.4375 C 227.292969 455.269531 220.042969 452.496094 212.882812 449.742188 C 227.898438 450.570312 242.441406 456.5 257.757812 451.507812 C 256.824219 451.265625 255.902344 450.929688 254.953125 450.789062 C 233.238281 447.660156 212.734375 440.765625 194.527344 428.59375 C 175.082031 415.601562 160.5625 398.195312 157.910156 374.117188 C 154.128906 339.765625 179.351562 323.066406 208.058594 325.421875 C 208.5 325.460938 208.917969 325.742188 209.40625 325.933594 C 205.128906 327.765625 200.804688 329.308594 196.765625 331.398438 C 164.84375 347.960938 162.253906 395.226562 189.6875 416.605469 C 206.0625 429.363281 224.445312 436.8125 244.480469 440.988281 C 281.933594 448.785156 319.894531 449.886719 357.949219 449.484375 C 372.554688 449.328125 387.15625 448.382812 401.753906 447.800781 C 401.753906 448.222656 401.75 448.648438 401.746094 449.078125 Z M 136.5 455.109375 C 139.71875 455.851562 142.90625 457.003906 146.167969 457.246094 C 150.9375 457.597656 154.226562 455.082031 155.191406 452.046875 C 149.28125 453.039062 142.847656 454.121094 136.410156 455.199219 C 135.449219 453.3125 133.988281 451.507812 133.628906 449.507812 C 132.859375 445.25 131.742188 440.722656 132.492188 436.621094 C 133.222656 432.632812 136.101562 429.035156 137.917969 425.507812 C 134.554688 426.730469 132.132812 429.632812 130.847656 433.546875 C 128.105469 441.910156 129.980469 449.136719 136.5 455.109375 Z M 110.195312 448.050781 C 119.714844 461.71875 131.898438 471.925781 148.425781 475.910156 C 160.9375 478.925781 178.59375 472.109375 184.878906 461.300781 C 178.929688 464.273438 173.988281 466.746094 169.042969 469.21875 C 168.921875 468.933594 168.800781 468.648438 168.679688 468.363281 C 171.214844 465.671875 173.753906 462.972656 176.289062 460.28125 C 151.367188 470.238281 129.847656 464.851562 110.195312 448.050781 Z M 159.234375 459.839844 C 168.195312 459.15625 175.492188 444.070312 171.378906 435.492188 C 164.269531 420.65625 146.238281 411.882812 128.800781 415.21875 C 123.699219 416.195312 118.835938 418.414062 113.863281 420.0625 C 123.089844 420.113281 131.898438 419.105469 140.671875 419.339844 C 151.191406 419.621094 163.585938 427.097656 164.039062 438.527344 C 164.332031 445.898438 164.941406 453.519531 159.234375 459.839844 Z M 159.234375 459.839844 " fill-opacity="1" fill-rule="nonzero"/><path fill="#dcb65f" d="M 278.210938 568.640625 C 273.722656 567.585938 269.652344 566.632812 265.007812 565.546875 C 266.117188 565.03125 266.933594 564.316406 267.757812 564.316406 C 275.144531 564.308594 282.542969 564.582031 289.925781 564.402344 C 291.878906 564.355469 294.15625 563.457031 295.675781 562.210938 C 304.871094 554.675781 314.730469 548.40625 326.304688 545.21875 C 328.234375 544.683594 330.25 544.484375 332.5625 544.070312 C 324.734375 548.871094 317.285156 553.328125 309.964844 557.992188 C 307.433594 559.601562 305.300781 561.828125 302.847656 563.589844 C 299.105469 566.273438 299.273438 568.84375 300.46875 573.445312 C 302.882812 582.738281 304.917969 592.6875 304.167969 602.128906 C 301.988281 629.539062 289.878906 652.0625 266.476562 667.390625 C 255.386719 674.65625 242.902344 676.773438 229.875 673.296875 C 210.195312 668.054688 198.535156 649.683594 203.742188 630.011719 C 210.84375 603.171875 228.367188 584.871094 254.007812 574.703125 C 261.40625 571.765625 269.570312 570.738281 278.210938 568.640625 Z M 265.339844 597.707031 C 264.5625 599.03125 263.785156 600.359375 263.410156 601 C 268.351562 605.886719 272.933594 610.410156 277.742188 615.164062 C 279.105469 609.3125 279.742188 603.210938 277.125 597.152344 C 274.890625 591.96875 272.570312 591.539062 268.269531 595.289062 C 267.203125 596.214844 266.035156 597.023438 264.914062 597.886719 C 266.578125 595.660156 268.242188 593.4375 269.925781 591.1875 C 263.488281 587.605469 250.921875 590.316406 246.628906 595.957031 C 249.492188 596.816406 252.574219 597.269531 255.171875 598.636719 C 258.960938 600.628906 262.203125 600.8125 265.339844 597.707031 Z M 228.53125 665.550781 C 228.496094 665.816406 228.460938 666.078125 228.425781 666.339844 C 229.867188 666.773438 231.308594 667.585938 232.746094 667.574219 C 239.214844 667.511719 245.867188 668.117188 252.113281 666.832031 C 272.761719 662.589844 291.648438 640.863281 295.832031 617.925781 C 297.667969 607.839844 296.4375 598.617188 289.808594 590.511719 C 288.785156 589.257812 287.367188 588.328125 284.996094 586.25 C 284.667969 589.863281 284.320312 592.105469 284.285156 594.347656 C 284.1875 601.007812 284.769531 607.730469 284.085938 614.328125 C 281.15625 642.75 260.046875 662.960938 231.675781 664.976562 C 230.625 665.054688 229.582031 665.359375 228.53125 665.550781 Z M 213.582031 658.066406 C 213.296875 656.855469 213.050781 655.632812 212.726562 654.429688 C 207.402344 634.933594 214.71875 612.027344 231.253906 600.585938 C 241.105469 593.769531 252.167969 588.695312 262.691406 582.84375 C 263.507812 582.390625 264.359375 582 265.195312 581.582031 C 263.238281 580.960938 261.476562 580.886719 259.828125 581.289062 C 254.75 582.527344 249.578125 583.582031 244.683594 585.363281 C 219.445312 594.542969 204.246094 618.21875 206.914062 643.957031 C 207.472656 649.359375 209.042969 654.421875 213.582031 658.066406 Z M 264.703125 610.386719 C 271.769531 632.222656 259.933594 644.230469 241.871094 653.820312 C 256.214844 652.460938 270.464844 638.695312 271.808594 625.726562 C 272.460938 619.421875 269.78125 614.4375 264.703125 610.386719 Z M 236.308594 615.554688 C 235.117188 605.582031 244.199219 608.359375 248.109375 604.628906 C 244.65625 605.222656 241.292969 606.027344 238.003906 607.074219 C 233.667969 608.449219 233.164062 610.480469 236.308594 615.554688 Z M 236.308594 615.554688 " fill-opacity="1" fill-rule="nonzero"/><path fill="#dcb65f" d="M 449.222656 681.058594 C 447.863281 681.253906 446.503906 681.457031 444.070312 681.816406 C 447.484375 676.433594 451.574219 672.964844 456.398438 670.933594 C 460.304688 669.285156 461.730469 666.453125 463.210938 663.03125 C 469.949219 647.4375 476.207031 631.582031 483.835938 616.429688 C 493.46875 597.300781 509.492188 584.355469 528.320312 574.71875 C 528.691406 574.527344 529.136719 574.484375 529.867188 574.894531 C 528.097656 576.082031 526.359375 577.332031 524.550781 578.453125 C 507.972656 588.730469 495.585938 602.789062 487.789062 620.582031 C 481.285156 635.421875 475.558594 650.605469 469.421875 665.605469 C 468.113281 668.796875 468.101562 670.835938 471.792969 672.78125 C 476.933594 675.492188 479.050781 680.785156 481.40625 687.117188 C 478.6875 685.105469 476.941406 683.816406 475.984375 683.105469 C 478.367188 690.867188 482.097656 698.765625 483.050781 706.988281 C 485.203125 725.542969 481.117188 743.390625 473.066406 760.167969 C 469.527344 767.53125 463.480469 772.777344 455.753906 775.832031 C 442.773438 780.960938 430.164062 775.65625 424.734375 762.75 C 419.785156 750.988281 420.304688 738.664062 422.175781 726.554688 C 423.472656 718.179688 425.925781 709.8125 429.121094 701.957031 C 432.480469 693.707031 438.667969 687.382812 447.015625 683.554688 C 447.972656 683.117188 448.8125 682.417969 449.703125 681.84375 C 449.539062 681.578125 449.382812 681.316406 449.222656 681.058594 Z M 445.796875 695.324219 C 443.191406 696.429688 441.183594 696.738281 439.984375 697.894531 C 436.359375 701.390625 432.292969 704.757812 429.757812 708.984375 C 422.183594 721.601562 422.046875 735.585938 424.304688 749.597656 C 425.019531 754.027344 426.839844 758.449219 428.964844 762.433594 C 431.003906 766.25 434.152344 769.425781 439.347656 770.585938 C 419.367188 743.777344 432.191406 720.261719 445.796875 695.324219 Z M 468.078125 725.050781 C 468.792969 718.847656 465.207031 707.148438 460.765625 703.484375 C 459.128906 702.140625 456.242188 701.222656 454.234375 701.625 C 447.78125 702.917969 437.507812 716.046875 436.917969 722.5 C 440.457031 721.378906 444.140625 719.476562 447.929688 719.230469 C 451.539062 718.996094 453.957031 718.421875 454.433594 715.058594 C 455.179688 716.449219 455.609375 718.589844 456.878906 719.367188 C 460.449219 721.578125 464.367188 723.21875 468.078125 725.050781 Z M 467.304688 697.863281 C 472.640625 715.84375 473.761719 733.335938 470.273438 751.164062 C 474.214844 741.300781 478.101562 731.421875 480.472656 721.195312 C 481.527344 716.636719 480.355469 711.058594 478.65625 706.519531 C 477.082031 702.324219 473.699219 698.554688 467.304688 697.863281 Z M 446.125 725.683594 C 439.53125 729.320312 438.507812 730.96875 440.054688 734.785156 C 441.914062 732.003906 443.699219 729.320312 446.125 725.683594 Z M 446.125 725.683594 " fill-opacity="1" fill-rule="nonzero"/><path fill="#dcb65f" d="M 567.214844 559.125 C 561.832031 567.878906 556.0625 576.425781 551.171875 585.445312 C 546.265625 594.496094 542.226562 604.015625 537.597656 613.777344 C 550.300781 620.21875 555.230469 631.433594 558.402344 643.988281 C 561.894531 657.8125 561.796875 671.367188 556.597656 684.75 C 553 694.019531 548.011719 702.363281 538.75 706.863281 C 525.40625 713.347656 512.742188 710.140625 501.511719 701.9375 C 489.996094 693.527344 486.5 681.355469 489.113281 667.578125 C 491.835938 653.257812 500.082031 642.410156 511.542969 633.800781 C 515.292969 630.984375 519.074219 628.222656 522.613281 625.042969 C 514.78125 625.351562 508.765625 629.679688 502.472656 633.945312 C 502.363281 633.34375 502.089844 632.785156 502.253906 632.59375 C 510.015625 623.511719 517.601562 614.238281 530.273438 611.574219 C 531.703125 611.273438 533.039062 609.289062 533.925781 607.789062 C 541.109375 595.617188 547.929688 583.21875 555.414062 571.234375 C 558.375 566.492188 562.734375 562.617188 566.457031 558.34375 C 566.703125 558.605469 566.960938 558.863281 567.214844 559.125 Z M 538.902344 696.847656 C 550.550781 691.925781 559.546875 671.285156 557.183594 656.289062 C 555.496094 645.597656 545.085938 633.773438 535.480469 632.6875 C 537.734375 640.792969 539.867188 648.546875 542.046875 656.285156 C 545.941406 670.117188 549.664062 683.921875 538.902344 696.847656 Z M 510.347656 700.511719 C 508.941406 698.632812 507.871094 697.160156 506.753906 695.722656 C 502.550781 690.316406 500.195312 684.195312 499.449219 677.386719 C 497.800781 662.441406 504.238281 654.59375 519.28125 653.136719 C 520.425781 653.027344 522.183594 652.117188 522.4375 651.230469 C 523.273438 648.289062 523.550781 645.1875 524.066406 642.007812 C 506.117188 643.683594 495.265625 653.09375 493.527344 668.015625 C 491.855469 682.296875 499.199219 696.921875 510.347656 700.511719 Z M 540.609375 662.023438 C 536.804688 654.253906 534.265625 646.5625 525.832031 641.566406 C 525.039062 645.664062 524.28125 648.691406 523.96875 651.761719 C 523.882812 652.625 524.902344 654.015625 525.78125 654.492188 C 530.3125 656.945312 534.964844 659.1875 540.609375 662.023438 Z M 530.171875 662.929688 C 530.824219 669.402344 531.53125 676.417969 532.21875 683.246094 C 537.890625 678.160156 536.757812 668.894531 530.171875 662.929688 Z M 515.234375 662.117188 C 509.519531 663.859375 507.550781 666.386719 508.328125 670.402344 C 510.488281 667.808594 512.726562 665.125 515.234375 662.117188 Z M 515.234375 662.117188 " fill-opacity="1" fill-rule="nonzero"/><path fill="#dcb65f" d="M 636.949219 537.214844 C 632.726562 536.230469 628.503906 535.238281 624.28125 534.253906 C 624.152344 534 624.023438 533.746094 623.894531 533.496094 C 630.1875 532.023438 636.414062 529.921875 642.789062 529.257812 C 648.472656 528.664062 651.851562 526.164062 654.914062 521.574219 C 665.808594 505.238281 679.058594 490.914062 693.957031 478.042969 C 688.753906 484.476562 683.328125 490.746094 678.40625 497.390625 C 671.125 507.222656 664.222656 517.335938 657.109375 527.296875 C 655.222656 529.933594 654.933594 532.375 655.953125 535.675781 C 658.554688 544.09375 660.484375 552.722656 662.003906 561.425781 C 658.527344 556.21875 655.050781 551.015625 651.570312 545.8125 C 650.957031 546.09375 650.34375 546.375 649.730469 546.660156 C 657.945312 560.957031 662.214844 575.558594 655.3125 591.597656 C 648.5 607.417969 635.625 615.253906 619.347656 619 C 619.625 619.679688 619.902344 620.363281 620.179688 621.039062 C 625.683594 619.925781 631.191406 618.804688 636.285156 617.773438 C 625.640625 626.824219 609.847656 624.421875 602.019531 612.210938 C 592.304688 597.046875 593.085938 569.601562 603.554688 554.945312 C 609.320312 546.875 617.695312 543.453125 626.914062 541.449219 C 630.136719 540.75 633.375 540.136719 636.605469 539.480469 C 636.722656 538.726562 636.835938 537.96875 636.949219 537.214844 Z M 605.703125 609.59375 C 606.003906 609.433594 606.304688 609.28125 606.601562 609.121094 C 606.207031 607.480469 605.824219 605.835938 605.40625 604.199219 C 602.882812 594.25 602.429688 584.410156 606.953125 574.832031 C 611.535156 565.121094 619.929688 560.46875 629.359375 563 C 635.824219 564.738281 646.332031 574.257812 645.542969 584.949219 C 644.964844 592.875 640.632812 598.5 635.429688 603.800781 C 633.878906 605.378906 632.394531 607.015625 630.164062 609.394531 C 644.523438 605.617188 655.964844 590.054688 655.382812 576.476562 C 654.914062 565.664062 646.449219 553.933594 638.464844 552.449219 C 640.851562 556.496094 643.414062 560.84375 645.976562 565.191406 C 641.972656 561.722656 637.285156 558.5625 635.496094 554.210938 C 632.617188 547.21875 627.441406 548.414062 622.542969 548.921875 C 612.757812 549.9375 605.628906 555.445312 601.621094 564.273438 C 595.566406 577.601562 595.726562 591.082031 602.261719 604.3125 C 603.1875 606.1875 604.546875 607.84375 605.703125 609.59375 Z M 623.085938 568.976562 C 619.042969 569.558594 616.558594 572.433594 615.714844 576.160156 C 615.292969 578.019531 616.917969 580.347656 617.730469 582.800781 C 619.738281 577.632812 621.335938 573.5 623.085938 568.976562 Z M 638.253906 588.675781 C 642.050781 584.941406 641.734375 579.101562 637.558594 574.261719 C 637.773438 578.734375 638.023438 583.910156 638.253906 588.675781 Z M 638.253906 588.675781 " fill-opacity="1" fill-rule="nonzero"/><path fill="#dcb65f" d="M 184.234375 668.734375 C 184.355469 668.808594 184.574219 668.871094 184.582031 668.960938 C 186.699219 690.640625 197.296875 701.265625 219.265625 703.785156 C 236.28125 705.738281 250.980469 700.542969 263.542969 689.183594 C 278.191406 675.933594 289.5 660.015625 299.628906 643.199219 C 304.046875 635.871094 308.367188 628.484375 312.730469 621.125 C 313.066406 621.304688 313.402344 621.488281 313.746094 621.671875 C 309.601562 629.585938 305.785156 637.6875 301.238281 645.363281 C 292.992188 659.296875 285.089844 673.527344 275.636719 686.625 C 261.3125 706.46875 241.640625 717.324219 216.578125 716.917969 C 206.628906 716.753906 197.429688 714.019531 189.265625 708.265625 C 175.296875 698.414062 175.632812 679.390625 184.234375 668.734375 Z M 184.234375 668.734375 " fill-opacity="1" fill-rule="nonzero"/><path fill="#dcb65f" d="M 176.625 535.328125 C 211.246094 532.667969 244.921875 526.695312 274.835938 507.398438 C 266.800781 509.253906 258.765625 511.109375 250.730469 512.957031 C 303.621094 490.617188 356.617188 468.785156 415.152344 466.246094 C 409.039062 467.882812 402.972656 469.722656 396.800781 471.117188 C 354.304688 480.695312 313.023438 493.226562 274.949219 515.378906 C 248.8125 530.589844 219.9375 537.601562 189.523438 537.351562 C 185.25 537.316406 180.984375 536.804688 176.710938 536.511719 C 176.683594 536.117188 176.65625 535.722656 176.625 535.328125 Z M 176.625 535.328125 " fill-opacity="1" fill-rule="nonzero"/><path fill="#dcb65f" d="M 585.78125 556.359375 C 578.855469 569.304688 572.683594 582.402344 571.238281 597.054688 C 569.058594 619.207031 570.253906 641.050781 581.234375 661.117188 C 591.136719 679.214844 606.304688 689.101562 627.414062 688.34375 C 631.445312 688.199219 635.4375 686.929688 640.3125 686.015625 C 634.128906 691.382812 627.625 694.285156 620.300781 695.109375 C 601.296875 697.246094 586.730469 689.523438 576.382812 673.964844 C 564.460938 656.035156 561.027344 635.777344 562.25 614.679688 C 563.453125 593.886719 571.816406 575.652344 583.636719 558.835938 C 584.265625 557.945312 585.0625 557.179688 585.78125 556.359375 Z M 585.78125 556.359375 " fill-opacity="1" fill-rule="nonzero"/><path fill="#dcb65f" d="M 646.417969 624.277344 C 646.007812 630.738281 644.957031 637.675781 645.261719 644.554688 C 645.910156 659.058594 657.457031 667.285156 671.433594 663.230469 C 677.445312 661.488281 683.074219 658.421875 688.695312 656.035156 C 683.628906 668.484375 665.585938 677.957031 652.445312 674.839844 C 644.417969 672.9375 639.371094 667.871094 637.347656 659.953125 C 634.476562 648.695312 638.988281 632.140625 646.417969 624.277344 Z M 646.417969 624.277344 " fill-opacity="1" fill-rule="nonzero"/><path fill="#dcb65f" d="M 96.847656 679.4375 C 96.660156 681.949219 96.308594 684.464844 96.3125 686.972656 C 96.332031 694.5625 101.816406 699.105469 109.242188 697.527344 C 118.300781 695.597656 124.96875 689.828125 130.117188 682.644531 C 135.375 675.316406 139.695312 667.3125 144.429688 659.609375 C 145.75 657.464844 147.09375 655.332031 148.449219 653.152344 C 148.855469 653.546875 149.191406 653.792969 149.160156 653.851562 C 142.089844 667.679688 135.433594 681.746094 127.726562 695.210938 C 123.398438 702.769531 116.503906 708.148438 107.378906 709.6875 C 99.308594 711.054688 92.585938 708.441406 89.09375 702.550781 C 85.753906 696.917969 86.738281 690.066406 91.890625 683.597656 C 93.148438 682.019531 94.582031 680.574219 95.933594 679.0625 C 96.238281 679.1875 96.539062 679.3125 96.847656 679.4375 Z M 96.847656 679.4375 " fill-opacity="1" fill-rule="nonzero"/><path fill="#dcb65f" d="M 288.164062 709.945312 C 275.503906 733.617188 260.410156 755.328125 237.460938 770.449219 C 230.402344 775.105469 222.464844 777.34375 213.871094 776.214844 C 206.683594 775.269531 200.914062 771.960938 197.238281 765.59375 C 194.535156 760.917969 194.253906 756.03125 196.917969 750.347656 C 198.234375 752.921875 199.058594 755.050781 200.3125 756.886719 C 208.761719 769.300781 222.277344 772.910156 235.339844 765.511719 C 240.914062 762.355469 246.261719 758.1875 250.503906 753.402344 C 261.457031 741.0625 271.742188 728.132812 282.261719 715.414062 C 283.964844 713.355469 285.492188 711.15625 287.105469 709.023438 C 287.457031 709.328125 287.8125 709.636719 288.164062 709.945312 Z M 288.164062 709.945312 " fill-opacity="1" fill-rule="nonzero"/><path fill="#dcb65f" d="M 257.285156 277.199219 C 243.429688 284.894531 238.179688 297.042969 238.667969 312.15625 C 239.15625 327.238281 248.21875 337.785156 257.914062 348.035156 C 245.566406 338.800781 233.304688 329.449219 229.074219 313.636719 C 226.453125 303.839844 229.101562 295.128906 236.492188 287.988281 C 242.328125 282.347656 249.433594 279.207031 257.285156 277.199219 Z M 257.285156 277.199219 " fill-opacity="1" fill-rule="nonzero"/><g clip-path="url(#f3c16ced0d)"><path fill="#dcb65f" d="M 245.734375 781.125 C 245.878906 783.453125 245.457031 785.351562 246.1875 786.542969 C 247.660156 788.949219 249.371094 791.875 251.707031 792.859375 C 253.5625 793.640625 257.371094 792.625 258.785156 791.042969 C 262.011719 787.433594 265.046875 783.285156 266.835938 778.824219 C 272.558594 764.523438 277.644531 749.96875 283.039062 735.535156 C 284.910156 730.527344 286.976562 725.597656 288.953125 720.632812 C 289.410156 720.789062 289.867188 720.949219 290.320312 721.101562 C 287.082031 732.847656 283.835938 744.589844 280.601562 756.339844 C 277.46875 767.714844 273.910156 778.945312 267.023438 788.707031 C 264.761719 791.90625 262.226562 795.429688 258.953125 797.265625 C 255.472656 799.222656 250.917969 800.261719 246.914062 800.058594 C 242.492188 799.832031 239.566406 796.363281 239.234375 791.65625 C 238.902344 786.988281 240.917969 783.503906 245.734375 781.125 Z M 245.734375 781.125 " fill-opacity="1" fill-rule="nonzero"/></g><path fill="#dcb65f" d="M 630.921875 102.355469 C 630.921875 102.355469 630.628906 102.382812 630.625 102.386719 C 634.023438 103.152344 637.429688 103.914062 641.300781 104.78125 C 639.539062 102.710938 637.777344 100.644531 635.804688 98.328125 C 636.957031 96.273438 638.246094 93.96875 639.59375 91.558594 C 651.316406 104.53125 658.113281 123.257812 651.410156 134.25 C 645.761719 121.207031 636.445312 112.929688 621.757812 110.410156 C 625.171875 107.410156 628.046875 104.882812 630.921875 102.355469 Z M 630.921875 102.355469 " fill-opacity="1" fill-rule="nonzero"/><path fill="#dcb65f" d="M 399.472656 721.484375 C 393.332031 732.933594 388.027344 744.941406 380.871094 755.710938 C 367.179688 776.316406 345.203125 783.265625 322.886719 775.367188 C 321.339844 774.816406 319.878906 774.035156 318.378906 772.847656 C 360.382812 778.554688 382.714844 754.828125 397.769531 720.035156 C 398.339844 720.519531 398.90625 721 399.472656 721.484375 Z M 399.472656 721.484375 " fill-opacity="1" fill-rule="nonzero"/><path fill="#dcb65f" d="M 589.316406 47.792969 C 584.199219 46.847656 579.105469 45.695312 573.945312 45.070312 C 572.011719 44.835938 569.878906 45.644531 567.929688 46.269531 C 564.648438 47.316406 561.523438 49.199219 558.183594 49.648438 C 551.9375 50.484375 547.671875 46.632812 547.175781 40.566406 C 546.714844 34.886719 550.84375 30.292969 556.882812 29.773438 C 562.785156 29.261719 568.421875 32.699219 571.261719 37.960938 C 571.984375 39.304688 573.917969 40.234375 575.496094 40.832031 C 580.246094 42.652344 585.09375 44.214844 589.90625 45.875 C 589.710938 46.515625 589.515625 47.152344 589.316406 47.792969 Z M 589.316406 47.792969 " fill-opacity="1" fill-rule="nonzero"/><path fill="#dcb65f" d="M 590.6875 562.867188 C 586.957031 574.167969 584.632812 585.742188 585.074219 597.777344 C 585.449219 608.027344 586.773438 618.117188 591.589844 627.308594 C 597.449219 638.496094 604.554688 648.5 618.761719 650.136719 C 618.628906 650.683594 618.496094 651.230469 618.363281 651.78125 C 614.492188 651.402344 610.414062 651.667969 606.785156 650.523438 C 596.605469 647.3125 590.929688 639.324219 586.894531 629.996094 C 576.953125 607.0625 579.914062 584.753906 590.6875 562.867188 Z M 590.6875 562.867188 " fill-opacity="1" fill-rule="nonzero"/><path fill="#dcb65f" d="M 610.875 41.625 C 609.980469 41.0625 609.042969 40.558594 608.203125 39.929688 C 602.996094 36.027344 598.421875 31.226562 590.800781 32.046875 C 588.183594 32.328125 585.011719 30.4375 582.585938 28.808594 C 577.796875 25.585938 576.96875 19.4375 580.246094 14.984375 C 583.402344 10.703125 589.777344 9.785156 594.289062 13.066406 C 598.164062 15.886719 600.113281 19.925781 599.96875 24.570312 C 599.851562 28.199219 601.359375 30.292969 604.003906 32.457031 C 606.882812 34.808594 609.214844 37.847656 611.785156 40.585938 C 611.480469 40.929688 611.179688 41.273438 610.875 41.625 Z M 610.875 41.625 " fill-opacity="1" fill-rule="nonzero"/><path fill="#dcb65f" d="M 274.597656 719.210938 C 265.097656 730.859375 255.835938 742.808594 243.347656 751.53125 C 231.261719 759.976562 218.8125 758.875 210.269531 749.148438 C 231.765625 754.171875 247.292969 743.003906 262.0625 730.0625 C 266.207031 726.429688 269.835938 722.214844 273.699219 718.261719 C 273.996094 718.578125 274.300781 718.894531 274.597656 719.210938 Z M 274.597656 719.210938 " fill-opacity="1" fill-rule="nonzero"/><path fill="#dcb65f" d="M 411.40625 706.671875 C 411.40625 707.671875 411.546875 708.699219 411.386719 709.671875 C 408.734375 725.578125 404.652344 741.019531 396.316406 755.027344 C 390.429688 764.929688 382.335938 772.0625 370.910156 774.96875 C 391.484375 762.21875 398.261719 740.628906 406.324219 719.890625 C 408.015625 715.535156 409.308594 711.027344 410.785156 706.585938 C 410.992188 706.617188 411.199219 706.640625 411.40625 706.671875 Z M 411.40625 706.671875 " fill-opacity="1" fill-rule="nonzero"/><path fill="#dcb65f" d="M 608.402344 68.121094 C 620.5 69.597656 627.269531 76.371094 630.167969 89.507812 C 617.507812 90.414062 612.472656 85.53125 608.402344 68.121094 Z M 608.402344 68.121094 " fill-opacity="1" fill-rule="nonzero"/><path fill="#dcb65f" d="M 480.933594 659.628906 C 487.832031 640.382812 494.617188 622.054688 505.113281 604.949219 C 506.347656 616.136719 492.976562 646.484375 480.933594 659.628906 Z M 480.933594 659.628906 " fill-opacity="1" fill-rule="nonzero"/><path fill="#dcb65f" d="M 74.972656 452.488281 C 76.445312 471.800781 84.332031 487.898438 97.078125 502.222656 C 78.679688 495.5 65.800781 466.699219 74.972656 452.488281 Z M 74.972656 452.488281 " fill-opacity="1" fill-rule="nonzero"/><path fill="#dcb65f" d="M 311.503906 611.386719 C 316.210938 595.613281 330.605469 582.035156 352.21875 573.550781 C 338.492188 586.308594 324.683594 599.140625 311.503906 611.386719 Z M 311.503906 611.386719 " fill-opacity="1" fill-rule="nonzero"/><path fill="#dcb65f" d="M 135.769531 693.359375 C 151.058594 675.191406 157.691406 651.992188 171.285156 632.917969 C 161.804688 654.484375 155.929688 678.15625 135.769531 693.359375 Z M 135.769531 693.359375 " fill-opacity="1" fill-rule="nonzero"/><path fill="#dcb65f" d="M 180.734375 372.976562 C 180.972656 389.625 191.320312 401.03125 198.492188 413.84375 C 182.300781 406.277344 171.710938 386.359375 180.734375 372.976562 Z M 180.734375 372.976562 " fill-opacity="1" fill-rule="nonzero"/><path fill="#dcb65f" d="M 625.347656 43.152344 C 621.511719 39.140625 617.671875 35.261719 613.992188 31.246094 C 611.375 28.386719 610.503906 25.046875 613.199219 21.839844 C 615.546875 19.035156 618.71875 17.230469 622.40625 19.042969 C 625.988281 20.804688 626.953125 24.058594 625.984375 27.898438 C 625.40625 30.207031 624.957031 41.292969 625.347656 43.152344 Z M 625.347656 43.152344 " fill-opacity="1" fill-rule="nonzero"/><path fill="#dcb65f" d="M 559.421875 561.34375 C 548.242188 574.632812 537.660156 587.203125 526.46875 600.503906 C 529.199219 586.007812 546 566.039062 559.421875 561.34375 Z M 559.421875 561.34375 " fill-opacity="1" fill-rule="nonzero"/><path fill="#dcb65f" d="M 63.828125 473.019531 C 65.84375 478.378906 67.238281 484.699219 70.414062 489.941406 C 75.527344 498.382812 84.132812 503 93.117188 506.492188 C 99.414062 508.9375 105.941406 510.78125 112.742188 513.015625 C 96.109375 515.382812 71.167969 501.636719 64.746094 486.863281 C 62.546875 481.804688 62.386719 478.160156 63.828125 473.019531 Z M 63.828125 473.019531 " fill-opacity="1" fill-rule="nonzero"/><path fill="#dcb65f" d="M 569.984375 59.625 C 566.855469 60.671875 562.613281 62.117188 558.351562 63.503906 C 557.003906 63.941406 555.621094 64.433594 554.234375 64.515625 C 550.839844 64.71875 548.210938 63.390625 547.773438 59.753906 C 547.332031 56.085938 549.628906 54.148438 552.964844 53.632812 C 556.710938 53.054688 559.777344 54.007812 562.785156 56.886719 C 564.816406 58.835938 568.46875 59.097656 569.984375 59.625 Z M 569.984375 59.625 " fill-opacity="1" fill-rule="nonzero"/><path fill="#dcb65f" d="M 641.167969 54.574219 C 638.007812 49.1875 634.976562 45.148438 633.285156 40.605469 C 632.539062 38.601562 633.832031 34.875 635.492188 33.261719 C 636.671875 32.113281 641.136719 32.28125 642.128906 33.5 C 643.617188 35.320312 644.671875 39.855469 643.574219 41 C 639.90625 44.832031 641.128906 49.109375 641.167969 54.574219 Z M 641.167969 54.574219 " fill-opacity="1" fill-rule="nonzero"/><path fill="#dcb65f" d="M 366.566406 399.441406 C 346.035156 399.640625 325.921875 399.640625 307.625 390.175781 C 326.933594 393.210938 346.566406 396.296875 366.566406 399.441406 Z M 366.566406 399.441406 " fill-opacity="1" fill-rule="nonzero"/><path fill="#dcb65f" d="M 561.25 72.617188 C 560.304688 72.925781 559.351562 73.214844 558.414062 73.558594 C 555.550781 74.597656 552.683594 75.621094 549.847656 76.722656 C 548.675781 77.175781 547.617188 78.039062 546.421875 78.292969 C 542.996094 79.027344 539.308594 79.070312 537.964844 75.238281 C 537.371094 73.542969 538.296875 70.351562 539.671875 69.125 C 542.449219 66.648438 546.957031 66.015625 549.128906 68.941406 C 551.835938 72.585938 554.605469 72.246094 558.042969 71.753906 C 559.046875 71.613281 560.097656 71.851562 561.128906 71.914062 C 561.164062 72.148438 561.203125 72.382812 561.25 72.617188 Z M 561.25 72.617188 " fill-opacity="1" fill-rule="nonzero"/><path fill="#dcb65f" d="M 412.042969 732.203125 C 414.949219 719.003906 417.851562 705.800781 420.753906 692.597656 C 421.148438 692.6875 421.546875 692.777344 421.945312 692.863281 C 422.644531 706.875 420.125 720.164062 412.042969 732.203125 Z M 412.042969 732.203125 " fill-opacity="1" fill-rule="nonzero"/><path fill="#dcb65f" d="M 242.855469 436.203125 C 227.132812 433.332031 213.226562 427.421875 203.457031 414.320312 C 199.640625 409.207031 198.152344 403.421875 200.363281 397.015625 C 200.257812 412.378906 209.84375 420.925781 221.9375 427.292969 C 228.621094 430.8125 235.863281 433.269531 242.855469 436.203125 Z M 242.855469 436.203125 " fill-opacity="1" fill-rule="nonzero"/><path fill="#dcb65f" d="M 290.847656 737.527344 C 291.308594 750.964844 288.5 762.089844 280.679688 771.722656 C 283.949219 760.734375 287.214844 749.75 290.847656 737.527344 Z M 290.847656 737.527344 " fill-opacity="1" fill-rule="nonzero"/><g clip-path="url(#848ec3b379)"><path fill="#dcb65f" d="M 661.832031 244.113281 C 663.089844 244.113281 664.109375 245.132812 664.109375 246.390625 C 664.109375 247.652344 663.089844 248.671875 661.832031 248.671875 C 660.570312 248.671875 659.550781 247.652344 659.550781 246.390625 C 659.550781 245.132812 660.570312 244.113281 661.832031 244.113281 Z M 661.832031 244.113281 " fill-opacity="1" fill-rule="evenodd"/></g></svg>